<svg width="24" height="24" viewBox="0 0 24 24" fill="none" xmlns="http://www.w3.org/2000/svg">
<path d="M10.8589 5.64282C10.2097 5.64282 9.57497 5.83535 9.03512 6.19606C8.49528 6.55678 8.07452 7.06947 7.82606 7.66932C7.57759 8.26916 7.51258 8.92921 7.63925 9.566C7.76592 10.2028 8.07857 10.7877 8.53767 11.2468C8.99677 11.7059 9.5817 12.0186 10.2185 12.1452C10.8553 12.2719 11.5153 12.2069 12.1152 11.9584C12.715 11.71 13.2277 11.2892 13.5884 10.7494C13.9491 10.2095 14.1417 9.57483 14.1417 8.92557C14.1407 8.05523 13.7945 7.22083 13.1791 6.60541C12.5637 5.98999 11.7293 5.64381 10.8589 5.64282ZM10.8589 10.5669C10.5343 10.5669 10.2169 10.4707 9.94702 10.2903C9.6771 10.11 9.46672 9.85362 9.34249 9.5537C9.21826 9.25377 9.18575 8.92375 9.24908 8.60535C9.31242 8.28696 9.46874 7.99449 9.69829 7.76494C9.92784 7.53539 10.2203 7.37907 10.5387 7.31573C10.8571 7.2524 11.1871 7.28491 11.487 7.40914C11.787 7.53337 12.0433 7.74375 12.2237 8.01367C12.404 8.28359 12.5003 8.60094 12.5003 8.92557C12.4998 9.36073 12.3267 9.77793 12.019 10.0856C11.7113 10.3933 11.2941 10.5664 10.8589 10.5669Z" fill="#223463"/>
<path d="M17.1672 2.6121C15.6076 1.05282 13.5256 0.126539 11.3231 0.0120392C9.12064 -0.10246 6.95383 0.602935 5.24087 1.99208C3.52791 3.38123 2.39024 5.35565 2.04742 7.53429C1.70461 9.71292 2.18095 11.9413 3.38452 13.7894L9.58619 23.31C9.7242 23.5219 9.9129 23.6959 10.1352 23.8164C10.3575 23.9369 10.6063 24 10.8592 24C11.112 24 11.3608 23.9369 11.5831 23.8164C11.8054 23.6959 11.9941 23.5219 12.1321 23.31L18.334 13.7894C19.4508 12.075 19.9443 10.0289 19.7319 7.99393C19.5195 5.95896 18.614 4.05886 17.1672 2.6121ZM16.9587 12.8935L10.8592 22.257L4.75958 12.8935C2.89252 10.0273 3.29296 6.19157 5.71173 3.7727C6.38769 3.09672 7.19019 2.5605 8.07339 2.19466C8.95659 1.82881 9.9032 1.64052 10.8592 1.64052C11.8152 1.64052 12.7618 1.82881 13.645 2.19466C14.5282 2.5605 15.3307 3.09672 16.0066 3.7727C18.4254 6.19157 18.8258 10.0273 16.9587 12.8935Z" fill="#223463"/>
</svg>
