<svg width="34" height="34" viewBox="0 0 34 34" fill="none" xmlns="http://www.w3.org/2000/svg">
<rect x="0.5" y="0.5" width="33" height="33" rx="16.5" stroke="white"/>
<path d="M15.8194 18.1755C16.6776 19.0645 17.7159 19.7508 18.8615 20.1863L20.4113 18.927C20.4573 18.8946 20.5118 18.8773 20.5676 18.8773C20.6234 18.8773 20.6778 18.8946 20.7238 18.927L23.6015 20.8202C23.7107 20.8873 23.8032 20.9794 23.8716 21.0892C23.94 21.1991 23.9825 21.3236 23.9956 21.4531C24.0088 21.5826 23.9923 21.7134 23.9474 21.8352C23.9025 21.9571 23.8305 22.0666 23.7371 22.1552L22.3887 23.5153C22.1956 23.7101 21.9583 23.8531 21.6979 23.9315C21.4375 24.0099 21.1622 24.0212 20.8964 23.9645C18.2458 23.4054 15.8026 22.0962 13.8461 20.1863C11.9331 18.2575 10.6093 15.8032 10.0353 13.1212C9.97856 12.8541 9.9904 12.5765 10.0696 12.3154C10.1489 12.0543 10.2928 11.8186 10.4875 11.631L11.8852 10.2541C11.9717 10.1633 12.0772 10.0937 12.1937 10.0504C12.3103 10.0072 12.435 9.99146 12.5583 10.0044C12.6817 10.0173 12.8006 10.0586 12.9062 10.1251C13.0117 10.1916 13.1012 10.2816 13.1678 10.3884L15.0835 13.2891C15.1166 13.3347 15.1344 13.3899 15.1344 13.4466C15.1344 13.5033 15.1166 13.5584 15.0835 13.604L13.8215 15.153C14.2595 16.2995 14.942 17.3319 15.8194 18.1755Z" fill="white"/>
</svg>
