<?xml version="1.0" encoding="utf-8"?>
<!-- Generator: Adobe Illustrator 25.1.0, SVG Export Plug-In . SVG Version: 6.00 Build 0)  -->
<svg version="1.1" id="Слой_1" xmlns="http://www.w3.org/2000/svg" xmlns:xlink="http://www.w3.org/1999/xlink" x="0px" y="0px"
	 viewBox="0 0 34 34" style="enable-background:new 0 0 34 34;" xml:space="preserve">
<style type="text/css">
	.st0{fill:none;stroke:#FFFFFF;}
	.st1{fill:#FFFFFF;}
</style>
<path class="st0" d="M17,0.5L17,0.5c9.1,0,16.5,7.4,16.5,16.5l0,0c0,9.1-7.4,16.5-16.5,16.5l0,0C7.9,33.5,0.5,26.1,0.5,17l0,0
	C0.5,7.9,7.9,0.5,17,0.5z"/>
<path class="st1" d="M11.7,20.6c0.1,0.1,0.2,0.2,0.2,0.4c0,0.1,0.1,0.3,0.1,0.5c-0.1,0.7-0.2,1.4-0.4,2.1c1.4-0.3,2.2-0.7,2.6-1
	c0.2-0.1,0.5-0.1,0.7-0.1c0.7,0.2,1.4,0.3,2.1,0.3c4,0,7-3,7-6.4c0-3.4-3-6.4-7-6.4s-7,3-7,6.4C10,18,10.6,19.5,11.7,20.6z
	 M11.2,24.8c-0.2,0.1-0.5,0.1-0.7,0.1c-0.2,0-0.4-0.2-0.3-0.4c0.1-0.2,0.2-0.5,0.2-0.7l0,0c0.2-0.8,0.4-1.7,0.5-2.5
	c-1.2-1.3-2-3-2-4.9C9,12.3,12.6,9,17,9s8,3.3,8,7.5s-3.6,7.5-8,7.5c-0.8,0-1.6-0.1-2.3-0.3C14.1,23.9,13,24.4,11.2,24.8z"/>
<path class="st1" d="M13,13.8c0-0.1,0.1-0.3,0.1-0.4c0.1-0.1,0.2-0.2,0.4-0.2h7c0.1,0,0.3,0.1,0.4,0.2c0.1,0.1,0.1,0.2,0.1,0.4
	c0,0.1-0.1,0.3-0.1,0.4c-0.1,0.1-0.2,0.2-0.4,0.2h-7c-0.1,0-0.3-0.1-0.4-0.2C13.1,14.1,13,13.9,13,13.8z M13,16.5
	c0-0.1,0.1-0.3,0.1-0.4c0.1-0.1,0.2-0.2,0.4-0.2h7c0.1,0,0.3,0.1,0.4,0.2c0.1,0.1,0.1,0.2,0.1,0.4c0,0.1-0.1,0.3-0.1,0.4
	c-0.1,0.1-0.2,0.2-0.4,0.2h-7c-0.1,0-0.3-0.1-0.4-0.2C13.1,16.7,13,16.6,13,16.5z M13,19.1c0-0.1,0.1-0.3,0.1-0.4
	c0.1-0.1,0.2-0.2,0.4-0.2h4c0.1,0,0.3,0.1,0.4,0.2c0.1,0.1,0.1,0.2,0.1,0.4s-0.1,0.3-0.1,0.4c-0.1,0.1-0.2,0.2-0.4,0.2h-4
	c-0.1,0-0.3-0.1-0.4-0.2C13.1,19.4,13,19.3,13,19.1z"/>
</svg>
