<svg width="34" height="34" viewBox="0 0 34 34" fill="none" xmlns="http://www.w3.org/2000/svg">
<rect x="0.5" y="0.5" width="33" height="33" rx="16.5" stroke="#223463"/>
<path d="M11.678 20.6236C11.7818 20.7348 11.8613 20.869 11.9109 21.0167C11.9605 21.1645 11.979 21.322 11.965 21.4783C11.8947 22.2012 11.7615 22.9156 11.567 23.6122C12.962 23.2676 13.814 22.8685 14.201 22.6594C14.4205 22.5408 14.6733 22.5127 14.911 22.5804C15.5924 22.7743 16.2948 22.8718 17 22.8707C20.996 22.8707 24 19.8757 24 16.4688C24 13.063 20.996 10.067 17 10.067C13.004 10.067 10 13.063 10 16.4688C10 18.0351 10.617 19.4883 11.678 20.6236ZM11.185 24.7901C10.9481 24.8403 10.7104 24.8861 10.472 24.9278C10.272 24.9619 10.12 24.74 10.199 24.5415C10.2878 24.3181 10.3692 24.0914 10.443 23.8619L10.446 23.8512C10.694 23.083 10.896 22.1995 10.97 21.3769C9.743 20.0645 9 18.3467 9 16.4688C9 12.3439 12.582 9 17 9C21.418 9 25 12.3439 25 16.4688C25 20.5937 21.418 23.9376 17 23.9376C16.2077 23.9388 15.4186 23.829 14.653 23.6111C14.133 23.8917 13.014 24.4028 11.185 24.7901Z" fill="#223463"/>
<path d="M13 13.8013C13 13.6598 13.0527 13.5241 13.1464 13.4241C13.2402 13.324 13.3674 13.2678 13.5 13.2678H20.5C20.6326 13.2678 20.7598 13.324 20.8536 13.4241C20.9473 13.5241 21 13.6598 21 13.8013C21 13.9428 20.9473 14.0785 20.8536 14.1785C20.7598 14.2786 20.6326 14.3348 20.5 14.3348H13.5C13.3674 14.3348 13.2402 14.2786 13.1464 14.1785C13.0527 14.0785 13 13.9428 13 13.8013ZM13 16.4687C13 16.3273 13.0527 16.1916 13.1464 16.0915C13.2402 15.9915 13.3674 15.9353 13.5 15.9353H20.5C20.6326 15.9353 20.7598 15.9915 20.8536 16.0915C20.9473 16.1916 21 16.3273 21 16.4687C21 16.6102 20.9473 16.7459 20.8536 16.846C20.7598 16.946 20.6326 17.0022 20.5 17.0022H13.5C13.3674 17.0022 13.2402 16.946 13.1464 16.846C13.0527 16.7459 13 16.6102 13 16.4687ZM13 19.1362C13 18.9947 13.0527 18.859 13.1464 18.7589C13.2402 18.6589 13.3674 18.6027 13.5 18.6027H17.5C17.6326 18.6027 17.7598 18.6589 17.8536 18.7589C17.9473 18.859 18 18.9947 18 19.1362C18 19.2777 17.9473 19.4134 17.8536 19.5134C17.7598 19.6135 17.6326 19.6697 17.5 19.6697H13.5C13.3674 19.6697 13.2402 19.6135 13.1464 19.5134C13.0527 19.4134 13 19.2777 13 19.1362Z" fill="#223463"/>
</svg>
