<svg width="90" height="90" viewBox="0 0 90 90" fill="none" xmlns="http://www.w3.org/2000/svg">
<g filter="url(#filter0_d)">
<rect x="10" y="10" width="70" height="70" rx="35" fill="#223463"/>
<path d="M42.569 47.4201C44.3358 49.2503 46.4736 50.6634 48.8322 51.56L52.023 48.9672C52.1176 48.9006 52.2298 48.865 52.3446 48.865C52.4595 48.865 52.5717 48.9006 52.6663 48.9672L58.5909 52.8651C58.8158 53.0031 59.0062 53.1927 59.147 53.4189C59.2879 53.645 59.3753 53.9015 59.4024 54.1681C59.4295 54.4346 59.3955 54.704 59.3031 54.9548C59.2108 55.2057 59.0625 55.4312 58.8702 55.6135L56.0941 58.4137C55.6965 58.8149 55.2079 59.1092 54.6718 59.2706C54.1357 59.432 53.5688 59.4553 53.0217 59.3385C47.5645 58.1876 42.5344 55.492 38.5064 51.56C34.5678 47.5889 31.8423 42.5359 30.6605 37.0142C30.5438 36.4642 30.5681 35.8927 30.7312 35.3552C30.8943 34.8176 31.1907 34.3322 31.5915 33.946L34.4692 31.1112C34.6473 30.9243 34.8644 30.781 35.1044 30.692C35.3444 30.603 35.601 30.5706 35.855 30.5972C36.1091 30.6238 36.3539 30.7087 36.5712 30.8456C36.7885 30.9825 36.9727 31.1679 37.1099 31.3878L41.054 37.3599C41.122 37.4537 41.1587 37.5673 41.1587 37.684C41.1587 37.8007 41.122 37.9143 41.054 38.0081L38.4556 41.1973C39.3575 43.5576 40.7626 45.6833 42.569 47.4201Z" fill="white"/>
</g>
<defs>
<filter id="filter0_d" x="0" y="0" width="90" height="90" filterUnits="userSpaceOnUse" color-interpolation-filters="sRGB">
<feFlood flood-opacity="0" result="BackgroundImageFix"/>
<feColorMatrix in="SourceAlpha" type="matrix" values="0 0 0 0 0 0 0 0 0 0 0 0 0 0 0 0 0 0 127 0"/>
<feOffset/>
<feGaussianBlur stdDeviation="5"/>
<feColorMatrix type="matrix" values="0 0 0 0 0 0 0 0 0 0 0 0 0 0 0 0 0 0 0.15 0"/>
<feBlend mode="normal" in2="BackgroundImageFix" result="effect1_dropShadow"/>
<feBlend mode="normal" in="SourceGraphic" in2="effect1_dropShadow" result="shape"/>
</filter>
</defs>
</svg>
