<svg width="45" height="45" viewBox="0 0 45 45" fill="none" xmlns="http://www.w3.org/2000/svg">
<path d="M22.5 0C10.0742 0 0 10.0742 0 22.5C0 34.9258 10.0742 45 22.5 45C34.9258 45 45 34.9258 45 22.5C45 10.0742 34.9258 0 22.5 0ZM34.245 11.0577L29.3552 33.7079C29.3329 33.8116 29.2859 33.9083 29.2184 33.99C29.1507 34.0717 29.0644 34.1359 28.9667 34.1772C28.8691 34.2185 28.7629 34.2356 28.6572 34.2272C28.5515 34.2188 28.4494 34.185 28.3594 34.1289L20.8401 29.2101L16.8852 32.8406C16.8037 32.9094 16.7067 32.9576 16.6026 32.9809C16.4985 33.0043 16.3903 33.0021 16.2872 32.9747C16.184 32.9473 16.0891 32.8954 16.0103 32.8234C15.9316 32.7514 15.8714 32.6614 15.8349 32.5611L13.2598 24.5504L6.34355 21.7524C5.81371 21.5136 5.82097 20.6804 6.3646 20.4721L33.3595 10.3217C33.8458 10.1359 34.3473 10.5532 34.2443 11.0569L34.245 11.0577Z" fill="#0087D0"/>
<path d="M16.6688 30.4673L17.1086 26.291L29.3073 14.366L14.5807 24.0373L16.6688 30.4673Z" fill="#0087D0"/>
</svg>
