<svg width="45" height="45" viewBox="0 0 45 45" fill="none" xmlns="http://www.w3.org/2000/svg">
<path d="M22.5 0C10.0742 0 0 10.0742 0 22.5C0 34.9258 10.0742 45 22.5 45C34.9258 45 45 34.9258 45 22.5C45 10.0742 34.9258 0 22.5 0ZM21.6566 11.6797C21.8221 11.676 21.9948 11.7015 22.1436 11.7015C22.2039 11.7015 22.2598 11.6964 22.3084 11.684C27.6612 11.8785 32.3318 16.7444 32.2352 22.0972C32.2352 22.5835 32.4298 23.3623 31.651 23.3623C30.8722 23.3623 31.0667 22.5835 31.0667 21.9999C30.989 21.3344 30.8726 20.6741 30.7183 20.0221C30.5805 19.4396 30.3992 18.8683 30.1761 18.3128C29.877 17.561 29.472 16.8556 28.9735 16.2181C27.5277 14.392 25.3314 13.3447 22.2111 12.8526C21.7248 12.7553 21.0426 12.8526 21.0426 12.2683C21.0426 11.7624 21.3344 11.679 21.6566 11.6797ZM29.0235 22.2917C28.1475 22.389 28.3413 21.6102 28.2448 21.1239C27.6605 17.7177 26.4927 16.4526 22.9899 15.6738C22.5029 15.5765 21.7248 15.6738 21.8214 14.8957C21.9194 14.1169 22.6974 14.4094 23.1844 14.5067C26.6879 14.8957 29.5098 17.8149 29.5098 21.1239C29.4126 21.5129 29.7044 22.1944 29.0235 22.2924V22.2917ZM26.8824 20.5403C26.8824 20.9294 26.8824 21.4156 26.2981 21.5129C25.9091 21.5129 25.7139 21.2211 25.6166 20.8321C25.5194 19.3725 24.7406 18.5937 23.2817 18.3985C22.8919 18.3012 22.4056 18.204 22.5994 17.6197C22.6974 17.2306 23.0857 17.2306 23.4762 17.2306C25.1311 17.1341 26.8824 18.8855 26.8824 20.5403ZM32.3318 31.246C31.7475 32.9001 29.7044 34.5542 27.9523 34.5542C27.7577 34.4569 27.2707 34.4569 26.7844 34.2624C19.194 30.9535 13.5494 25.6006 10.4349 17.8156C9.36436 15.2848 10.5322 13.0471 13.1603 12.171C13.3915 12.0748 13.6394 12.0253 13.8898 12.0253C14.1402 12.0253 14.388 12.0748 14.6192 12.171C15.7877 12.5601 18.6097 16.5506 18.7069 17.7184C18.8042 18.691 18.1227 19.1773 17.5391 19.567C16.3713 20.3458 16.3713 21.4164 16.8576 22.4869C18.0261 25.0171 19.9713 26.6712 22.4049 27.8398C23.281 28.2288 24.157 28.2288 24.7406 27.2555C25.8111 25.6006 27.1735 25.6006 28.6331 26.6712C29.3146 27.1575 30.0927 27.6445 30.7742 28.2288C31.7482 29.0069 32.9153 29.6877 32.3318 31.2452V31.246Z" fill="#935BBE"/>
</svg>
