<svg width="45" height="45" viewBox="0 0 45 45" fill="none" xmlns="http://www.w3.org/2000/svg">
<path d="M23.4921 10.805C17.4861 10.805 12.6021 15.6867 12.5999 21.687C12.5971 23.7361 13.1744 25.7441 14.2649 27.4789L14.5233 27.8904L13.4237 31.9063L17.5441 30.8263L17.9419 31.0622C19.6193 32.0555 21.5331 32.5794 23.4827 32.5792H23.487C29.488 32.5792 34.3719 27.6967 34.3741 21.6957C34.3786 20.2654 34.0994 18.8485 33.5526 17.5269C33.0058 16.2053 32.2023 15.0053 31.1886 13.9963C30.1805 12.9818 28.9812 12.1774 27.66 11.6296C26.3389 11.0818 24.9222 10.8015 23.4921 10.805ZM29.6012 26.2937C29.3334 27.0572 28.0494 27.7547 27.4318 27.8484C26.878 27.9325 26.1776 27.9674 25.4075 27.7184C24.7851 27.5216 24.1735 27.2917 23.5756 27.0296C20.3501 25.6143 18.2445 22.3104 18.0841 22.0927C17.923 21.8742 16.7711 20.3196 16.7711 18.7097C16.7711 17.0999 17.6015 16.3095 17.8961 15.9814C18.1908 15.6541 18.5392 15.5721 18.7533 15.5721C18.9674 15.5721 19.1823 15.5742 19.3695 15.5837C19.5669 15.5938 19.8319 15.5075 20.0924 16.1447C20.361 16.8001 21.0033 18.4092 21.0839 18.5733C21.1637 18.7366 21.2182 18.9275 21.1107 19.1467C21.0033 19.3644 20.9496 19.5008 20.7892 19.691C20.6281 19.8826 20.4517 20.1178 20.3073 20.2644C20.1461 20.427 19.9785 20.6048 20.1665 20.9321C20.3537 21.2588 20.999 22.33 21.9541 23.1967C23.1822 24.3108 24.2179 24.6563 24.5394 24.8203C24.861 24.9843 25.0482 24.9567 25.2362 24.7383C25.4235 24.5205 26.039 23.7831 26.2531 23.4565C26.4672 23.1299 26.6813 23.1836 26.9767 23.2925C27.2714 23.4013 28.8515 24.1925 29.173 24.3565C29.4945 24.5205 29.7086 24.6018 29.7892 24.7383C29.869 24.8747 29.869 25.5294 29.6012 26.2937Z" fill="#27D061"/>
<path d="M22.5 0C10.0742 0 0 10.0742 0 22.5C0 34.9258 10.0742 45 22.5 45C34.9258 45 45 34.9258 45 22.5C45 10.0742 34.9258 0 22.5 0ZM23.4312 34.5288H23.4261C21.2487 34.5288 19.109 33.9844 17.2089 32.9531L10.3123 34.7531L12.158 28.0444C11.018 26.078 10.419 23.8447 10.4219 21.5717C10.424 14.4327 16.2602 8.62476 23.4312 8.62476C26.9115 8.62621 30.1783 9.97476 32.6344 12.4222C35.0906 14.8689 36.4427 18.1219 36.4413 21.5819C36.4384 28.7209 30.6015 34.5288 23.4312 34.5288Z" fill="#27D061"/>
</svg>
