<?xml version="1.0" standalone="no"?>
<!DOCTYPE svg PUBLIC "-//W3C//DTD SVG 20010904//EN"
 "http://www.w3.org/TR/2001/REC-SVG-20010904/DTD/svg10.dtd">
<svg version="1.0" xmlns="http://www.w3.org/2000/svg"
 width="591.000000pt" height="591.000000pt" viewBox="0 0 591.000000 591.000000"
 preserveAspectRatio="xMidYMid meet">

<g transform="translate(0.000000,591.000000) scale(0.100000,-0.100000)"
fill="#333333" fill-opacity="0.9" stroke="none">
<path d="M2568 5895 c-557 -79 -1042 -287 -1478 -634 -122 -97 -344 -319 -441
-441 -328 -412 -523 -848 -621 -1387 -21 -118 -23 -156 -23 -473 0 -377 7
-438 75 -718 169 -689 603 -1313 1200 -1724 763 -525 1749 -659 2629 -356 439
151 802 378 1131 708 446 445 727 993 829 1612 186 1132 -299 2267 -1249 2920
-347 239 -733 394 -1190 479 -99 18 -161 22 -440 25 -238 2 -351 -1 -422 -11z
m1289 -1341 c494 -212 901 -389 906 -393 4 -4 6 -154 5 -333 l-3 -327 -900
386 c-495 212 -904 386 -910 386 -5 0 -401 -168 -880 -373 -478 -205 -885
-379 -903 -387 l-32 -13 2 332 3 332 900 387 c495 213 903 388 907 388 3 1
411 -173 905 -385z m-119 -1101 l762 -327 0 -283 c0 -156 -3 -282 -7 -280 -5
2 -353 152 -775 332 l-768 329 -767 -329 c-423 -180 -771 -330 -775 -332 -5
-2 -8 124 -8 280 l0 284 773 331 c424 182 779 329 787 326 8 -2 358 -152 778
-331z m-1431 -1799 c84 -181 152 -335 152 -341 1 -9 -16 -13 -52 -13 l-54 0
-41 90 -41 91 -132 -3 -132 -3 -37 -85 -37 -85 -57 -3 c-31 -2 -56 0 -56 5 0
6 123 279 269 596 25 55 46 87 53 85 7 -3 81 -153 165 -334z m-1027 176 l0
-130 160 0 160 0 0 130 0 130 55 0 55 0 0 -330 0 -330 -55 0 -55 0 0 160 0
161 -157 -3 -158 -3 -3 -157 -3 -158 -49 0 -50 0 0 330 0 330 50 0 50 0 0
-130z m1587 119 c97 -36 130 -161 68 -254 l-24 -34 30 -18 c89 -52 103 -207
26 -281 -55 -53 -91 -62 -247 -62 l-140 0 0 330 0 330 129 0 c71 0 142 -5 158
-11z m693 -29 l0 -40 -140 0 -140 0 0 -90 0 -90 130 0 130 0 0 -40 0 -40 -130
0 -131 0 3 -117 3 -118 138 -3 137 -3 0 -39 0 -40 -190 0 -190 0 0 330 0 330
190 0 190 0 0 -40z m483 26 c39 -16 82 -61 96 -99 20 -52 13 -136 -14 -183
-36 -62 -88 -84 -198 -84 l-87 0 0 -140 0 -140 -55 0 -55 0 0 330 0 330 140 0
c97 0 151 -4 173 -14z m388 -91 c34 -58 64 -104 66 -101 3 3 31 49 62 103 l57
98 57 3 c38 2 57 -1 57 -9 0 -6 -36 -71 -80 -144 -44 -73 -82 -139 -85 -147
-4 -9 36 -85 94 -182 56 -92 101 -169 101 -172 0 -2 -26 -4 -59 -4 l-59 0 -73
125 -73 125 -74 -125 -74 -125 -59 0 c-33 0 -59 2 -59 4 0 3 45 80 101 172 58
97 98 173 94 182 -3 8 -42 76 -87 151 -44 75 -83 139 -85 144 -2 4 23 7 56 7
l60 0 62 -105z"/>
<path d="M2137 1763 c-8 -13 -87 -193 -87 -198 0 -3 42 -5 94 -5 l94 0 -45
103 c-52 116 -49 111 -56 100z"/>
<path d="M2682 1788 l3 -93 32 -3 c17 -2 50 2 73 8 31 8 44 19 57 45 35 74
-19 135 -120 135 l-48 0 3 -92z"/>
<path d="M2680 1496 l0 -116 53 0 c114 0 167 37 167 116 0 34 -6 51 -29 76
-28 31 -33 33 -110 36 l-81 4 0 -116z"/>
<path d="M3840 1770 l0 -110 60 0 c98 0 140 33 140 110 0 73 -49 110 -144 110
l-56 0 0 -110z"/>
</g>
</svg>
